solid OpenSCAD_Model
  facet normal 0 -1 0
    outer loop
      vertex -10 37 2
      vertex -10 37 0
      vertex -5 37 2
    endloop
  endfacet
  facet normal 0 -1 0
    outer loop
      vertex -2.80902 37 12.7511
      vertex 0 37 14.3
      vertex -10 37 14.3
    endloop
  endfacet
  facet normal 0 -1 0
    outer loop
      vertex 0 37 14.3
      vertex -2.56279 37 12.798
      vertex -2.5 37 12.8
    endloop
  endfacet
  facet normal 0 -1 0
    outer loop
      vertex 0 37 14.3
      vertex -2.62533 37 12.7921
      vertex -2.56279 37 12.798
    endloop
  endfacet
  facet normal 0 -1 0
    outer loop
      vertex 0 37 14.3
      vertex -2.68738 37 12.7823
      vertex -2.62533 37 12.7921
    endloop
  endfacet
  facet normal 0 -1 0
    outer loop
      vertex 0 37 14.3
      vertex -2.74869 37 12.7686
      vertex -2.68738 37 12.7823
    endloop
  endfacet
  facet normal 0 -1 0
    outer loop
      vertex 0 37 14.3
      vertex -2.80902 37 12.7511
      vertex -2.74869 37 12.7686
    endloop
  endfacet
  facet normal 0 -1 0
    outer loop
      vertex -10 37 14.3
      vertex -2.86812 37 12.7298
      vertex -2.80902 37 12.7511
    endloop
  endfacet
  facet normal 0 -1 0
    outer loop
      vertex -10 37 14.3
      vertex -2.92578 37 12.7048
      vertex -2.86812 37 12.7298
    endloop
  endfacet
  facet normal 0 -1 0
    outer loop
      vertex -10 37 14.3
      vertex -2.98175 37 12.6763
      vertex -2.92578 37 12.7048
    endloop
  endfacet
  facet normal 0 -1 0
    outer loop
      vertex -10 37 14.3
      vertex -3.03583 37 12.6443
      vertex -2.98175 37 12.6763
    endloop
  endfacet
  facet normal 0 -1 0
    outer loop
      vertex -10 37 14.3
      vertex -3.08778 37 12.609
      vertex -3.03583 37 12.6443
    endloop
  endfacet
  facet normal 0 -1 0
    outer loop
      vertex -10 37 14.3
      vertex -3.13742 37 12.5705
      vertex -3.08778 37 12.609
    endloop
  endfacet
  facet normal 0 -1 0
    outer loop
      vertex -10 37 14.3
      vertex -3.18455 37 12.529
      vertex -3.13742 37 12.5705
    endloop
  endfacet
  facet normal 0 -1 0
    outer loop
      vertex -10 37 14.3
      vertex -3.22897 37 12.4845
      vertex -3.18455 37 12.529
    endloop
  endfacet
  facet normal 0 -1 0
    outer loop
      vertex -10 37 14.3
      vertex -3.27051 37 12.4374
      vertex -3.22897 37 12.4845
    endloop
  endfacet
  facet normal 0 -1 0
    outer loop
      vertex -10 37 14.3
      vertex -3.30902 37 12.3878
      vertex -3.27051 37 12.4374
    endloop
  endfacet
  facet normal 0 -1 0
    outer loop
      vertex -10 37 14.3
      vertex -3.34433 37 12.3358
      vertex -3.30902 37 12.3878
    endloop
  endfacet
  facet normal 0 -1 0
    outer loop
      vertex -10 37 14.3
      vertex -3.37631 37 12.2818
      vertex -3.34433 37 12.3358
    endloop
  endfacet
  facet normal 0 -1 0
    outer loop
      vertex -10 37 14.3
      vertex -3.40483 37 12.2258
      vertex -3.37631 37 12.2818
    endloop
  endfacet
  facet normal 0 -1 0
    outer loop
      vertex -10 37 14.3
      vertex -3.42978 37 12.1681
      vertex -3.40483 37 12.2258
    endloop
  endfacet
  facet normal 0 -1 0
    outer loop
      vertex -10 37 14.3
      vertex -3.45106 37 12.109
      vertex -3.42978 37 12.1681
    endloop
  endfacet
  facet normal 0 -1 0
    outer loop
      vertex -10 37 14.3
      vertex -3.46858 37 12.0487
      vertex -3.45106 37 12.109
    endloop
  endfacet
  facet normal 0 -1 0
    outer loop
      vertex -10 37 14.3
      vertex -3.48229 37 11.9874
      vertex -3.46858 37 12.0487
    endloop
  endfacet
  facet normal 0 -1 0
    outer loop
      vertex -10 37 14.3
      vertex -3.49211 37 11.9253
      vertex -3.48229 37 11.9874
    endloop
  endfacet
  facet normal 0 -1 0
    outer loop
      vertex -10 37 14.3
      vertex -3.49803 37 11.8628
      vertex -3.49211 37 11.9253
    endloop
  endfacet
  facet normal 0 -1 0
    outer loop
      vertex -10 37 14.3
      vertex -3.5 37 11.8
      vertex -3.49803 37 11.8628
    endloop
  endfacet
  facet normal 0 -1 0
    outer loop
      vertex -10 37 14.3
      vertex -3.49803 37 11.7372
      vertex -3.5 37 11.8
    endloop
  endfacet
  facet normal 0 -1 0
    outer loop
      vertex -10 37 14.3
      vertex -3.49211 37 11.6747
      vertex -3.49803 37 11.7372
    endloop
  endfacet
  facet normal 0 -1 0
    outer loop
      vertex -10 37 14.3
      vertex -3.48229 37 11.6126
      vertex -3.49211 37 11.6747
    endloop
  endfacet
  facet normal 0 -1 0
    outer loop
      vertex -10 37 7.3
      vertex -3.48229 37 11.6126
      vertex -10 37 14.3
    endloop
  endfacet
  facet normal 0 -1 -0
    outer loop
      vertex -3.48229 37 11.6126
      vertex -10 37 7.3
      vertex -3.46858 37 11.5513
    endloop
  endfacet
  facet normal 0 -1 0
    outer loop
      vertex -5 37 7.3
      vertex -3.46858 37 11.5513
      vertex -10 37 7.3
    endloop
  endfacet
  facet normal 0 -1 -0
    outer loop
      vertex -3.46858 37 11.5513
      vertex -5 37 7.3
      vertex -3.45106 37 11.491
    endloop
  endfacet
  facet normal 0 -1 -0
    outer loop
      vertex -3.45106 37 11.491
      vertex -5 37 7.3
      vertex -3.42978 37 11.4319
    endloop
  endfacet
  facet normal 0 -1 -0
    outer loop
      vertex -3.42978 37 11.4319
      vertex -5 37 7.3
      vertex -3.40483 37 11.3742
    endloop
  endfacet
  facet normal 0 -1 -0
    outer loop
      vertex -3.40483 37 11.3742
      vertex -5 37 7.3
      vertex -3.37631 37 11.3182
    endloop
  endfacet
  facet normal 0 -1 -0
    outer loop
      vertex -3.37631 37 11.3182
      vertex -5 37 7.3
      vertex -3.34433 37 11.2642
    endloop
  endfacet
  facet normal 0 -1 -0
    outer loop
      vertex -3.34433 37 11.2642
      vertex -5 37 7.3
      vertex -3.30902 37 11.2122
    endloop
  endfacet
  facet normal 0 -1 -0
    outer loop
      vertex -3.27051 37 11.1626
      vertex -5 37 7.3
      vertex -3.22897 37 11.1155
    endloop
  endfacet
  facet normal 0 -1 -0
    outer loop
      vertex -3.22897 37 11.1155
      vertex -5 37 7.3
      vertex -3.18455 37 11.071
    endloop
  endfacet
  facet normal 0 -1 -0
    outer loop
      vertex -3.18455 37 11.071
      vertex -5 37 7.3
      vertex -3.13742 37 11.0295
    endloop
  endfacet
  facet normal 0 -1 -0
    outer loop
      vertex -3.13742 37 11.0295
      vertex -5 37 7.3
      vertex -3.08778 37 10.991
    endloop
  endfacet
  facet normal 0 -1 -0
    outer loop
      vertex -3.08778 37 10.991
      vertex -5 37 7.3
      vertex -3.03583 37 10.9557
    endloop
  endfacet
  facet normal 0 -1 -0
    outer loop
      vertex -3.03583 37 10.9557
      vertex -5 37 7.3
      vertex -2.98175 37 10.9237
    endloop
  endfacet
  facet normal 0 -1 -0
    outer loop
      vertex -2.62533 37 10.8079
      vertex -5 37 7.3
      vertex -2.56279 37 10.802
    endloop
  endfacet
  facet normal 0 -1 -0
    outer loop
      vertex -2.68738 37 10.8177
      vertex -5 37 7.3
      vertex -2.62533 37 10.8079
    endloop
  endfacet
  facet normal 0 -1 -0
    outer loop
      vertex -2.74869 37 10.8314
      vertex -5 37 7.3
      vertex -2.68738 37 10.8177
    endloop
  endfacet
  facet normal 0 -1 -0
    outer loop
      vertex -2.80902 37 10.8489
      vertex -5 37 7.3
      vertex -2.74869 37 10.8314
    endloop
  endfacet
  facet normal 0 -1 -0
    outer loop
      vertex -2.86812 37 10.8702
      vertex -5 37 7.3
      vertex -2.80902 37 10.8489
    endloop
  endfacet
  facet normal 0 -1 -0
    outer loop
      vertex -2.92578 37 10.8952
      vertex -5 37 7.3
      vertex -2.86812 37 10.8702
    endloop
  endfacet
  facet normal 0 -1 -0
    outer loop
      vertex -2.98175 37 10.9237
      vertex -5 37 7.3
      vertex -2.92578 37 10.8952
    endloop
  endfacet
  facet normal 0 -1 -0
    outer loop
      vertex -3.30902 37 11.2122
      vertex -5 37 7.3
      vertex -3.27051 37 11.1626
    endloop
  endfacet
  facet normal 0 -1 0
    outer loop
      vertex -2.43721 37 12.798
      vertex 0 37 14.3
      vertex -2.5 37 12.8
    endloop
  endfacet
  facet normal 0 -1 0
    outer loop
      vertex -2.37467 37 12.7921
      vertex 0 37 14.3
      vertex -2.43721 37 12.798
    endloop
  endfacet
  facet normal 0 -1 0
    outer loop
      vertex -2.31262 37 12.7823
      vertex 0 37 14.3
      vertex -2.37467 37 12.7921
    endloop
  endfacet
  facet normal 0 -1 0
    outer loop
      vertex -2.25131 37 12.7686
      vertex 0 37 14.3
      vertex -2.31262 37 12.7823
    endloop
  endfacet
  facet normal 0 -1 0
    outer loop
      vertex -2.19098 37 12.7511
      vertex 0 37 14.3
      vertex -2.25131 37 12.7686
    endloop
  endfacet
  facet normal 0 -1 0
    outer loop
      vertex -2.13188 37 12.7298
      vertex 0 37 14.3
      vertex -2.19098 37 12.7511
    endloop
  endfacet
  facet normal 0 -1 0
    outer loop
      vertex -2.07422 37 12.7048
      vertex 0 37 14.3
      vertex -2.13188 37 12.7298
    endloop
  endfacet
  facet normal 0 -1 0
    outer loop
      vertex -2.01825 37 12.6763
      vertex 0 37 14.3
      vertex -2.07422 37 12.7048
    endloop
  endfacet
  facet normal 0 -1 0
    outer loop
      vertex -1.96417 37 12.6443
      vertex 0 37 14.3
      vertex -2.01825 37 12.6763
    endloop
  endfacet
  facet normal 0 -1 0
    outer loop
      vertex -1.91221 37 12.609
      vertex 0 37 14.3
      vertex -1.96417 37 12.6443
    endloop
  endfacet
  facet normal 0 -1 0
    outer loop
      vertex -1.86258 37 12.5705
      vertex 0 37 14.3
      vertex -1.91221 37 12.609
    endloop
  endfacet
  facet normal 0 -1 0
    outer loop
      vertex -1.81545 37 12.529
      vertex 0 37 14.3
      vertex -1.86258 37 12.5705
    endloop
  endfacet
  facet normal 0 -1 0
    outer loop
      vertex -1.77103 37 12.4845
      vertex 0 37 14.3
      vertex -1.81545 37 12.529
    endloop
  endfacet
  facet normal 0 -1 0
    outer loop
      vertex -1.72949 37 12.4374
      vertex 0 37 14.3
      vertex -1.77103 37 12.4845
    endloop
  endfacet
  facet normal 0 -1 0
    outer loop
      vertex -1.69098 37 12.3878
      vertex 0 37 14.3
      vertex -1.72949 37 12.4374
    endloop
  endfacet
  facet normal 0 -1 0
    outer loop
      vertex -1.65567 37 12.3358
      vertex 0 37 14.3
      vertex -1.69098 37 12.3878
    endloop
  endfacet
  facet normal 0 -1 0
    outer loop
      vertex -1.62369 37 12.2818
      vertex 0 37 14.3
      vertex -1.65567 37 12.3358
    endloop
  endfacet
  facet normal 0 -1 0
    outer loop
      vertex -1.59517 37 12.2258
      vertex 0 37 14.3
      vertex -1.62369 37 12.2818
    endloop
  endfacet
  facet normal 0 -1 0
    outer loop
      vertex -1.57022 37 12.1681
      vertex 0 37 14.3
      vertex -1.59517 37 12.2258
    endloop
  endfacet
  facet normal 0 -1 0
    outer loop
      vertex -1.54894 37 12.109
      vertex 0 37 14.3
      vertex -1.57022 37 12.1681
    endloop
  endfacet
  facet normal 0 -1 0
    outer loop
      vertex -1.53142 37 12.0487
      vertex 0 37 14.3
      vertex -1.54894 37 12.109
    endloop
  endfacet
  facet normal 0 -1 0
    outer loop
      vertex -1.51771 37 11.9874
      vertex 0 37 14.3
      vertex -1.53142 37 12.0487
    endloop
  endfacet
  facet normal 0 -1 0
    outer loop
      vertex -1.50788 37 11.9253
      vertex 0 37 14.3
      vertex -1.51771 37 11.9874
    endloop
  endfacet
  facet normal 0 -1 0
    outer loop
      vertex -1.50197 37 11.8628
      vertex 0 37 14.3
      vertex -1.50788 37 11.9253
    endloop
  endfacet
  facet normal 0 -1 0
    outer loop
      vertex -1.5 37 11.8
      vertex 0 37 14.3
      vertex -1.50197 37 11.8628
    endloop
  endfacet
  facet normal 0 -1 0
    outer loop
      vertex -1.50197 37 11.7372
      vertex 0 37 14.3
      vertex -1.5 37 11.8
    endloop
  endfacet
  facet normal 0 -1 0
    outer loop
      vertex -1.50788 37 11.6747
      vertex 0 37 14.3
      vertex -1.50197 37 11.7372
    endloop
  endfacet
  facet normal 0 -1 0
    outer loop
      vertex -1.51771 37 11.6126
      vertex 0 37 14.3
      vertex -1.50788 37 11.6747
    endloop
  endfacet
  facet normal 0 -1 0
    outer loop
      vertex -1.53142 37 11.5513
      vertex 0 37 14.3
      vertex -1.51771 37 11.6126
    endloop
  endfacet
  facet normal 0 -1 0
    outer loop
      vertex -1.54894 37 11.491
      vertex 0 37 14.3
      vertex -1.53142 37 11.5513
    endloop
  endfacet
  facet normal 0 -1 0
    outer loop
      vertex -1.57022 37 11.4319
      vertex 0 37 14.3
      vertex -1.54894 37 11.491
    endloop
  endfacet
  facet normal 0 -1 0
    outer loop
      vertex 0 37 0
      vertex -1.57022 37 11.4319
      vertex -1.59517 37 11.3742
    endloop
  endfacet
  facet normal 0 -1 0
    outer loop
      vertex 0 37 0
      vertex -1.59517 37 11.3742
      vertex -1.62369 37 11.3182
    endloop
  endfacet
  facet normal 0 -1 -0
    outer loop
      vertex -2.56279 37 10.802
      vertex -5 37 7.3
      vertex -2.5 37 10.8
    endloop
  endfacet
  facet normal 0 -1 -0
    outer loop
      vertex -2.5 37 10.8
      vertex -5 37 7.3
      vertex -2.43721 37 10.802
    endloop
  endfacet
  facet normal 0 -1 -0
    outer loop
      vertex -2.43721 37 10.802
      vertex -5 37 7.3
      vertex -2.37467 37 10.8079
    endloop
  endfacet
  facet normal 0 -1 -0
    outer loop
      vertex -2.37467 37 10.8079
      vertex -5 37 7.3
      vertex -2.31262 37 10.8177
    endloop
  endfacet
  facet normal 0 -1 -0
    outer loop
      vertex -2.31262 37 10.8177
      vertex -5 37 7.3
      vertex -2.25131 37 10.8314
    endloop
  endfacet
  facet normal 0 -1 -0
    outer loop
      vertex -2.25131 37 10.8314
      vertex -5 37 7.3
      vertex -2.19098 37 10.8489
    endloop
  endfacet
  facet normal 0 -1 -0
    outer loop
      vertex -2.19098 37 10.8489
      vertex -5 37 7.3
      vertex -2.13188 37 10.8702
    endloop
  endfacet
  facet normal 0 -1 -0
    outer loop
      vertex -2.13188 37 10.8702
      vertex -5 37 7.3
      vertex -2.07422 37 10.8952
    endloop
  endfacet
  facet normal 0 -1 0
    outer loop
      vertex -5 37 7.3
      vertex -2.01825 37 10.9237
      vertex -2.07422 37 10.8952
    endloop
  endfacet
  facet normal 0 -1 0
    outer loop
      vertex 0 37 0
      vertex -2.01825 37 10.9237
      vertex -5 37 7.3
    endloop
  endfacet
  facet normal 0 -1 0
    outer loop
      vertex -2.01825 37 10.9237
      vertex 0 37 0
      vertex -1.96417 37 10.9557
    endloop
  endfacet
  facet normal 0 -1 0
    outer loop
      vertex -1.96417 37 10.9557
      vertex 0 37 0
      vertex -1.91221 37 10.991
    endloop
  endfacet
  facet normal 0 -1 0
    outer loop
      vertex -1.91221 37 10.991
      vertex 0 37 0
      vertex -1.86258 37 11.0295
    endloop
  endfacet
  facet normal 0 -1 0
    outer loop
      vertex -1.86258 37 11.0295
      vertex 0 37 0
      vertex -1.81545 37 11.071
    endloop
  endfacet
  facet normal 0 -1 0
    outer loop
      vertex -1.81545 37 11.071
      vertex 0 37 0
      vertex -1.77103 37 11.1155
    endloop
  endfacet
  facet normal 0 -1 0
    outer loop
      vertex 0 37 0
      vertex -5 37 7.3
      vertex -5 37 2
    endloop
  endfacet
  facet normal 0 -1 0
    outer loop
      vertex -1.77103 37 11.1155
      vertex 0 37 0
      vertex -1.72949 37 11.1626
    endloop
  endfacet
  facet normal 0 -1 0
    outer loop
      vertex -1.72949 37 11.1626
      vertex 0 37 0
      vertex -1.69098 37 11.2122
    endloop
  endfacet
  facet normal 0 -1 0
    outer loop
      vertex -1.69098 37 11.2122
      vertex 0 37 0
      vertex -1.65567 37 11.2642
    endloop
  endfacet
  facet normal 0 -1 0
    outer loop
      vertex -1.65567 37 11.2642
      vertex 0 37 0
      vertex -1.62369 37 11.3182
    endloop
  endfacet
  facet normal 0 -1 0
    outer loop
      vertex -1.57022 37 11.4319
      vertex 0 37 0
      vertex 0 37 14.3
    endloop
  endfacet
  facet normal 0 -1 0
    outer loop
      vertex 0 37 0
      vertex -5 37 2
      vertex -10 37 0
    endloop
  endfacet
  facet normal -0 0 1
    outer loop
      vertex -10 40 14.3
      vertex 0 37 14.3
      vertex 6.66134e-16 40 14.3
    endloop
  endfacet
  facet normal 0 0 1
    outer loop
      vertex 0 37 14.3
      vertex -10 40 14.3
      vertex -10 37 14.3
    endloop
  endfacet
  facet normal 0 1 0
    outer loop
      vertex -2.56279 40 12.798
      vertex 6.66134e-16 40 14.3
      vertex -2.5 40 12.8
    endloop
  endfacet
  facet normal 0 1 0
    outer loop
      vertex 6.66134e-16 40 14.3
      vertex -2.43721 40 12.798
      vertex -2.5 40 12.8
    endloop
  endfacet
  facet normal 0 1 0
    outer loop
      vertex 6.66134e-16 40 14.3
      vertex -2.37467 40 12.7921
      vertex -2.43721 40 12.798
    endloop
  endfacet
  facet normal 0 1 0
    outer loop
      vertex 6.66134e-16 40 14.3
      vertex -2.31262 40 12.7823
      vertex -2.37467 40 12.7921
    endloop
  endfacet
  facet normal 0 1 0
    outer loop
      vertex 6.66134e-16 40 14.3
      vertex -2.25131 40 12.7686
      vertex -2.31262 40 12.7823
    endloop
  endfacet
  facet normal 0 1 0
    outer loop
      vertex 6.66134e-16 40 14.3
      vertex -2.19098 40 12.7511
      vertex -2.25131 40 12.7686
    endloop
  endfacet
  facet normal 0 1 0
    outer loop
      vertex 6.66134e-16 40 14.3
      vertex -2.13188 40 12.7298
      vertex -2.19098 40 12.7511
    endloop
  endfacet
  facet normal 0 1 0
    outer loop
      vertex 6.66134e-16 40 14.3
      vertex -2.07422 40 12.7048
      vertex -2.13188 40 12.7298
    endloop
  endfacet
  facet normal 0 1 0
    outer loop
      vertex 6.66134e-16 40 14.3
      vertex -2.01825 40 12.6763
      vertex -2.07422 40 12.7048
    endloop
  endfacet
  facet normal 0 1 0
    outer loop
      vertex 6.66134e-16 40 14.3
      vertex -1.96417 40 12.6443
      vertex -2.01825 40 12.6763
    endloop
  endfacet
  facet normal 0 1 0
    outer loop
      vertex 6.66134e-16 40 14.3
      vertex -1.91221 40 12.609
      vertex -1.96417 40 12.6443
    endloop
  endfacet
  facet normal 0 1 0
    outer loop
      vertex 6.66134e-16 40 14.3
      vertex -1.86258 40 12.5705
      vertex -1.91221 40 12.609
    endloop
  endfacet
  facet normal 0 1 0
    outer loop
      vertex 6.66134e-16 40 14.3
      vertex -1.81545 40 12.529
      vertex -1.86258 40 12.5705
    endloop
  endfacet
  facet normal 0 1 0
    outer loop
      vertex 6.66134e-16 40 14.3
      vertex -1.77103 40 12.4845
      vertex -1.81545 40 12.529
    endloop
  endfacet
  facet normal 0 1 0
    outer loop
      vertex 6.66134e-16 40 14.3
      vertex -1.72949 40 12.4374
      vertex -1.77103 40 12.4845
    endloop
  endfacet
  facet normal 0 1 0
    outer loop
      vertex 6.66134e-16 40 14.3
      vertex -1.69098 40 12.3878
      vertex -1.72949 40 12.4374
    endloop
  endfacet
  facet normal 0 1 0
    outer loop
      vertex 6.66134e-16 40 14.3
      vertex -1.65567 40 12.3358
      vertex -1.69098 40 12.3878
    endloop
  endfacet
  facet normal 0 1 0
    outer loop
      vertex 6.66134e-16 40 14.3
      vertex -1.62369 40 12.2818
      vertex -1.65567 40 12.3358
    endloop
  endfacet
  facet normal 0 1 0
    outer loop
      vertex 6.66134e-16 40 14.3
      vertex -1.59517 40 12.2258
      vertex -1.62369 40 12.2818
    endloop
  endfacet
  facet normal 0 1 0
    outer loop
      vertex 6.66134e-16 40 14.3
      vertex -1.57022 40 12.1681
      vertex -1.59517 40 12.2258
    endloop
  endfacet
  facet normal 0 1 0
    outer loop
      vertex 6.66134e-16 40 14.3
      vertex -1.54894 40 12.109
      vertex -1.57022 40 12.1681
    endloop
  endfacet
  facet normal 0 1 0
    outer loop
      vertex 6.66134e-16 40 14.3
      vertex -1.53142 40 12.0487
      vertex -1.54894 40 12.109
    endloop
  endfacet
  facet normal 0 1 0
    outer loop
      vertex 6.66134e-16 40 14.3
      vertex -1.51771 40 11.9874
      vertex -1.53142 40 12.0487
    endloop
  endfacet
  facet normal 0 1 0
    outer loop
      vertex 6.66134e-16 40 14.3
      vertex -1.50788 40 11.9253
      vertex -1.51771 40 11.9874
    endloop
  endfacet
  facet normal 0 1 0
    outer loop
      vertex 6.66134e-16 40 14.3
      vertex -1.50197 40 11.8628
      vertex -1.50788 40 11.9253
    endloop
  endfacet
  facet normal 0 1 0
    outer loop
      vertex 6.66134e-16 40 14.3
      vertex -1.5 40 11.8
      vertex -1.50197 40 11.8628
    endloop
  endfacet
  facet normal 0 1 0
    outer loop
      vertex 6.66134e-16 40 14.3
      vertex -1.50197 40 11.7372
      vertex -1.5 40 11.8
    endloop
  endfacet
  facet normal 0 1 0
    outer loop
      vertex 6.66134e-16 40 14.3
      vertex -1.50788 40 11.6747
      vertex -1.50197 40 11.7372
    endloop
  endfacet
  facet normal 0 1 0
    outer loop
      vertex 6.66134e-16 40 14.3
      vertex -1.51771 40 11.6126
      vertex -1.50788 40 11.6747
    endloop
  endfacet
  facet normal 0 1 0
    outer loop
      vertex 6.66134e-16 40 14.3
      vertex -1.53142 40 11.5513
      vertex -1.51771 40 11.6126
    endloop
  endfacet
  facet normal 0 1 0
    outer loop
      vertex 6.66134e-16 40 14.3
      vertex -1.54894 40 11.491
      vertex -1.53142 40 11.5513
    endloop
  endfacet
  facet normal 0 1 0
    outer loop
      vertex 6.66134e-16 40 14.3
      vertex -1.57022 40 11.4319
      vertex -1.54894 40 11.491
    endloop
  endfacet
  facet normal 0 1 -0
    outer loop
      vertex 6.66134e-16 40 0
      vertex -1.57022 40 11.4319
      vertex 6.66134e-16 40 14.3
    endloop
  endfacet
  facet normal 0 1 0
    outer loop
      vertex -1.57022 40 11.4319
      vertex 6.66134e-16 40 0
      vertex -1.59517 40 11.3742
    endloop
  endfacet
  facet normal 0 1 0
    outer loop
      vertex -2.43721 40 10.802
      vertex -5 40 7.3
      vertex -2.5 40 10.8
    endloop
  endfacet
  facet normal 0 1 0
    outer loop
      vertex -2.37467 40 10.8079
      vertex -5 40 7.3
      vertex -2.43721 40 10.802
    endloop
  endfacet
  facet normal 0 1 0
    outer loop
      vertex -2.31262 40 10.8177
      vertex -5 40 7.3
      vertex -2.37467 40 10.8079
    endloop
  endfacet
  facet normal 0 1 0
    outer loop
      vertex -2.25131 40 10.8314
      vertex -5 40 7.3
      vertex -2.31262 40 10.8177
    endloop
  endfacet
  facet normal 0 1 0
    outer loop
      vertex -2.19098 40 10.8489
      vertex -5 40 7.3
      vertex -2.25131 40 10.8314
    endloop
  endfacet
  facet normal 0 1 0
    outer loop
      vertex -2.13188 40 10.8702
      vertex -5 40 7.3
      vertex -2.19098 40 10.8489
    endloop
  endfacet
  facet normal 0 1 0
    outer loop
      vertex -2.07422 40 10.8952
      vertex -5 40 7.3
      vertex -2.13188 40 10.8702
    endloop
  endfacet
  facet normal 0 1 0
    outer loop
      vertex -2.01825 40 10.9237
      vertex -5 40 7.3
      vertex -2.07422 40 10.8952
    endloop
  endfacet
  facet normal 0 1 0
    outer loop
      vertex 6.66134e-16 40 0
      vertex -2.01825 40 10.9237
      vertex -1.96417 40 10.9557
    endloop
  endfacet
  facet normal 0 1 0
    outer loop
      vertex 6.66134e-16 40 0
      vertex -1.96417 40 10.9557
      vertex -1.91221 40 10.991
    endloop
  endfacet
  facet normal 0 1 0
    outer loop
      vertex 6.66134e-16 40 0
      vertex -1.91221 40 10.991
      vertex -1.86258 40 11.0295
    endloop
  endfacet
  facet normal 0 1 0
    outer loop
      vertex 6.66134e-16 40 0
      vertex -1.86258 40 11.0295
      vertex -1.81545 40 11.071
    endloop
  endfacet
  facet normal 0 1 0
    outer loop
      vertex 6.66134e-16 40 0
      vertex -1.81545 40 11.071
      vertex -1.77103 40 11.1155
    endloop
  endfacet
  facet normal 0 1 0
    outer loop
      vertex 6.66134e-16 40 0
      vertex -1.77103 40 11.1155
      vertex -1.72949 40 11.1626
    endloop
  endfacet
  facet normal 0 1 0
    outer loop
      vertex -2.01825 40 10.9237
      vertex 6.66134e-16 40 0
      vertex -5 40 7.3
    endloop
  endfacet
  facet normal 0 1 0
    outer loop
      vertex 6.66134e-16 40 0
      vertex -1.72949 40 11.1626
      vertex -1.69098 40 11.2122
    endloop
  endfacet
  facet normal 0 1 0
    outer loop
      vertex 6.66134e-16 40 0
      vertex -1.69098 40 11.2122
      vertex -1.65567 40 11.2642
    endloop
  endfacet
  facet normal 0 1 0
    outer loop
      vertex 6.66134e-16 40 0
      vertex -1.65567 40 11.2642
      vertex -1.62369 40 11.3182
    endloop
  endfacet
  facet normal 0 1 0
    outer loop
      vertex -1.59517 40 11.3742
      vertex 6.66134e-16 40 0
      vertex -1.62369 40 11.3182
    endloop
  endfacet
  facet normal 0 1 0
    outer loop
      vertex -5 40 7.3
      vertex 6.66134e-16 40 0
      vertex -5 40 2
    endloop
  endfacet
  facet normal 0 1 0
    outer loop
      vertex -10 40 0
      vertex -5 40 2
      vertex 6.66134e-16 40 0
    endloop
  endfacet
  facet normal 0 1 0
    outer loop
      vertex -5 40 2
      vertex -10 40 0
      vertex -10 40 2
    endloop
  endfacet
  facet normal 0 1 0
    outer loop
      vertex -2.62533 40 12.7921
      vertex 6.66134e-16 40 14.3
      vertex -2.56279 40 12.798
    endloop
  endfacet
  facet normal 0 1 0
    outer loop
      vertex -2.68738 40 12.7823
      vertex 6.66134e-16 40 14.3
      vertex -2.62533 40 12.7921
    endloop
  endfacet
  facet normal 0 1 0
    outer loop
      vertex -2.74869 40 12.7686
      vertex 6.66134e-16 40 14.3
      vertex -2.68738 40 12.7823
    endloop
  endfacet
  facet normal 0 1 0
    outer loop
      vertex -2.80902 40 12.7511
      vertex 6.66134e-16 40 14.3
      vertex -2.74869 40 12.7686
    endloop
  endfacet
  facet normal 0 1 0
    outer loop
      vertex 6.66134e-16 40 14.3
      vertex -2.80902 40 12.7511
      vertex -10 40 14.3
    endloop
  endfacet
  facet normal 0 1 -0
    outer loop
      vertex -2.86812 40 12.7298
      vertex -10 40 14.3
      vertex -2.80902 40 12.7511
    endloop
  endfacet
  facet normal 0 1 -0
    outer loop
      vertex -2.92578 40 12.7048
      vertex -10 40 14.3
      vertex -2.86812 40 12.7298
    endloop
  endfacet
  facet normal 0 1 -0
    outer loop
      vertex -2.98175 40 12.6763
      vertex -10 40 14.3
      vertex -2.92578 40 12.7048
    endloop
  endfacet
  facet normal 0 1 -0
    outer loop
      vertex -3.03583 40 12.6443
      vertex -10 40 14.3
      vertex -2.98175 40 12.6763
    endloop
  endfacet
  facet normal 0 1 -0
    outer loop
      vertex -3.08778 40 12.609
      vertex -10 40 14.3
      vertex -3.03583 40 12.6443
    endloop
  endfacet
  facet normal 0 1 -0
    outer loop
      vertex -3.13742 40 12.5705
      vertex -10 40 14.3
      vertex -3.08778 40 12.609
    endloop
  endfacet
  facet normal 0 1 -0
    outer loop
      vertex -3.18455 40 12.529
      vertex -10 40 14.3
      vertex -3.13742 40 12.5705
    endloop
  endfacet
  facet normal 0 1 -0
    outer loop
      vertex -3.22897 40 12.4845
      vertex -10 40 14.3
      vertex -3.18455 40 12.529
    endloop
  endfacet
  facet normal 0 1 -0
    outer loop
      vertex -3.27051 40 12.4374
      vertex -10 40 14.3
      vertex -3.22897 40 12.4845
    endloop
  endfacet
  facet normal 0 1 -0
    outer loop
      vertex -3.30902 40 12.3878
      vertex -10 40 14.3
      vertex -3.27051 40 12.4374
    endloop
  endfacet
  facet normal 0 1 -0
    outer loop
      vertex -3.34433 40 12.3358
      vertex -10 40 14.3
      vertex -3.30902 40 12.3878
    endloop
  endfacet
  facet normal 0 1 -0
    outer loop
      vertex -3.37631 40 12.2818
      vertex -10 40 14.3
      vertex -3.34433 40 12.3358
    endloop
  endfacet
  facet normal 0 1 -0
    outer loop
      vertex -3.40483 40 12.2258
      vertex -10 40 14.3
      vertex -3.37631 40 12.2818
    endloop
  endfacet
  facet normal 0 1 -0
    outer loop
      vertex -3.42978 40 12.1681
      vertex -10 40 14.3
      vertex -3.40483 40 12.2258
    endloop
  endfacet
  facet normal 0 1 -0
    outer loop
      vertex -3.45106 40 12.109
      vertex -10 40 14.3
      vertex -3.42978 40 12.1681
    endloop
  endfacet
  facet normal 0 1 -0
    outer loop
      vertex -3.46858 40 12.0487
      vertex -10 40 14.3
      vertex -3.45106 40 12.109
    endloop
  endfacet
  facet normal 0 1 -0
    outer loop
      vertex -3.48229 40 11.9874
      vertex -10 40 14.3
      vertex -3.46858 40 12.0487
    endloop
  endfacet
  facet normal 0 1 -0
    outer loop
      vertex -3.49211 40 11.9253
      vertex -10 40 14.3
      vertex -3.48229 40 11.9874
    endloop
  endfacet
  facet normal 0 1 -0
    outer loop
      vertex -3.49803 40 11.8628
      vertex -10 40 14.3
      vertex -3.49211 40 11.9253
    endloop
  endfacet
  facet normal 0 1 -0
    outer loop
      vertex -3.5 40 11.8
      vertex -10 40 14.3
      vertex -3.49803 40 11.8628
    endloop
  endfacet
  facet normal 0 1 0
    outer loop
      vertex -3.49803 40 11.7372
      vertex -10 40 14.3
      vertex -3.5 40 11.8
    endloop
  endfacet
  facet normal 0 1 0
    outer loop
      vertex -3.49211 40 11.6747
      vertex -10 40 14.3
      vertex -3.49803 40 11.7372
    endloop
  endfacet
  facet normal 0 1 0
    outer loop
      vertex -3.48229 40 11.6126
      vertex -10 40 14.3
      vertex -3.49211 40 11.6747
    endloop
  endfacet
  facet normal 0 1 0
    outer loop
      vertex -10 40 7.3
      vertex -3.48229 40 11.6126
      vertex -3.46858 40 11.5513
    endloop
  endfacet
  facet normal 0 1 0
    outer loop
      vertex -5 40 7.3
      vertex -3.46858 40 11.5513
      vertex -3.45106 40 11.491
    endloop
  endfacet
  facet normal 0 1 0
    outer loop
      vertex -5 40 7.3
      vertex -3.45106 40 11.491
      vertex -3.42978 40 11.4319
    endloop
  endfacet
  facet normal 0 1 0
    outer loop
      vertex -5 40 7.3
      vertex -3.42978 40 11.4319
      vertex -3.40483 40 11.3742
    endloop
  endfacet
  facet normal 0 1 0
    outer loop
      vertex -5 40 7.3
      vertex -3.40483 40 11.3742
      vertex -3.37631 40 11.3182
    endloop
  endfacet
  facet normal 0 1 0
    outer loop
      vertex -5 40 7.3
      vertex -3.37631 40 11.3182
      vertex -3.34433 40 11.2642
    endloop
  endfacet
  facet normal 0 1 0
    outer loop
      vertex -5 40 7.3
      vertex -3.34433 40 11.2642
      vertex -3.30902 40 11.2122
    endloop
  endfacet
  facet normal 0 1 0
    outer loop
      vertex -5 40 7.3
      vertex -3.30902 40 11.2122
      vertex -3.27051 40 11.1626
    endloop
  endfacet
  facet normal 0 1 0
    outer loop
      vertex -5 40 7.3
      vertex -3.27051 40 11.1626
      vertex -3.22897 40 11.1155
    endloop
  endfacet
  facet normal 0 1 0
    outer loop
      vertex -5 40 7.3
      vertex -3.22897 40 11.1155
      vertex -3.18455 40 11.071
    endloop
  endfacet
  facet normal 0 1 0
    outer loop
      vertex -5 40 7.3
      vertex -3.18455 40 11.071
      vertex -3.13742 40 11.0295
    endloop
  endfacet
  facet normal 0 1 0
    outer loop
      vertex -5 40 7.3
      vertex -3.13742 40 11.0295
      vertex -3.08778 40 10.991
    endloop
  endfacet
  facet normal 0 1 0
    outer loop
      vertex -5 40 7.3
      vertex -3.08778 40 10.991
      vertex -3.03583 40 10.9557
    endloop
  endfacet
  facet normal 0 1 0
    outer loop
      vertex -5 40 7.3
      vertex -3.03583 40 10.9557
      vertex -2.98175 40 10.9237
    endloop
  endfacet
  facet normal 0 1 0
    outer loop
      vertex -5 40 7.3
      vertex -2.98175 40 10.9237
      vertex -2.92578 40 10.8952
    endloop
  endfacet
  facet normal 0 1 0
    outer loop
      vertex -5 40 7.3
      vertex -2.56279 40 10.802
      vertex -2.5 40 10.8
    endloop
  endfacet
  facet normal 0 1 0
    outer loop
      vertex -5 40 7.3
      vertex -2.62533 40 10.8079
      vertex -2.56279 40 10.802
    endloop
  endfacet
  facet normal 0 1 0
    outer loop
      vertex -5 40 7.3
      vertex -2.68738 40 10.8177
      vertex -2.62533 40 10.8079
    endloop
  endfacet
  facet normal 0 1 0
    outer loop
      vertex -5 40 7.3
      vertex -2.74869 40 10.8314
      vertex -2.68738 40 10.8177
    endloop
  endfacet
  facet normal 0 1 0
    outer loop
      vertex -5 40 7.3
      vertex -2.80902 40 10.8489
      vertex -2.74869 40 10.8314
    endloop
  endfacet
  facet normal 0 1 0
    outer loop
      vertex -5 40 7.3
      vertex -2.86812 40 10.8702
      vertex -2.80902 40 10.8489
    endloop
  endfacet
  facet normal 0 1 0
    outer loop
      vertex -5 40 7.3
      vertex -2.92578 40 10.8952
      vertex -2.86812 40 10.8702
    endloop
  endfacet
  facet normal 0 1 0
    outer loop
      vertex -3.46858 40 11.5513
      vertex -5 40 7.3
      vertex -10 40 7.3
    endloop
  endfacet
  facet normal 0 1 0
    outer loop
      vertex -3.48229 40 11.6126
      vertex -10 40 7.3
      vertex -10 40 14.3
    endloop
  endfacet
  facet normal -1 0 0
    outer loop
      vertex -10 37 7.3
      vertex -10 40 14.3
      vertex -10 40 7.3
    endloop
  endfacet
  facet normal -1 -0 0
    outer loop
      vertex -10 40 14.3
      vertex -10 37 7.3
      vertex -10 37 14.3
    endloop
  endfacet
  facet normal -1 0 0
    outer loop
      vertex -10 37 0
      vertex -10 40 2
      vertex -10 40 0
    endloop
  endfacet
  facet normal -1 -0 0
    outer loop
      vertex -10 40 2
      vertex -10 37 0
      vertex -10 37 2
    endloop
  endfacet
  facet normal 0 0 -1
    outer loop
      vertex -10 37 0
      vertex 6.66134e-16 40 0
      vertex 0 37 0
    endloop
  endfacet
  facet normal -0 0 -1
    outer loop
      vertex 6.66134e-16 40 0
      vertex -10 37 0
      vertex -10 40 0
    endloop
  endfacet
  facet normal 1 -2.22045e-16 0
    outer loop
      vertex 0 37 14.3
      vertex 6.66134e-16 40 0
      vertex 6.66134e-16 40 14.3
    endloop
  endfacet
  facet normal 1 -2.22045e-16 0
    outer loop
      vertex 6.66134e-16 40 0
      vertex 0 37 14.3
      vertex 0 37 0
    endloop
  endfacet
  facet normal 0 0 -1
    outer loop
      vertex -10 37 7.3
      vertex -5 40 7.3
      vertex -5 37 7.3
    endloop
  endfacet
  facet normal -0 0 -1
    outer loop
      vertex -5 40 7.3
      vertex -10 37 7.3
      vertex -10 40 7.3
    endloop
  endfacet
  facet normal -0 0 1
    outer loop
      vertex -10 40 2
      vertex -5 37 2
      vertex -5 40 2
    endloop
  endfacet
  facet normal 0 0 1
    outer loop
      vertex -5 37 2
      vertex -10 40 2
      vertex -10 37 2
    endloop
  endfacet
  facet normal -1 0 0
    outer loop
      vertex -5 37 2
      vertex -5 40 7.3
      vertex -5 40 2
    endloop
  endfacet
  facet normal -1 -0 0
    outer loop
      vertex -5 40 7.3
      vertex -5 37 2
      vertex -5 37 7.3
    endloop
  endfacet
  facet normal 0.0314092 0 0.999507
    outer loop
      vertex -2.56279 40 10.802
      vertex -2.5 37 10.8
      vertex -2.5 40 10.8
    endloop
  endfacet
  facet normal 0.0314092 0 0.999507
    outer loop
      vertex -2.5 37 10.8
      vertex -2.56279 40 10.802
      vertex -2.56279 37 10.802
    endloop
  endfacet
  facet normal -0.0314087 0 -0.999507
    outer loop
      vertex -2.5 37 12.8
      vertex -2.43721 40 12.798
      vertex -2.43721 37 12.798
    endloop
  endfacet
  facet normal -0.0314087 0 -0.999507
    outer loop
      vertex -2.43721 40 12.798
      vertex -2.5 37 12.8
      vertex -2.5 40 12.8
    endloop
  endfacet
  facet normal 0.999506 0 -0.0314239
    outer loop
      vertex -3.49803 37 11.8628
      vertex -3.5 40 11.8
      vertex -3.49803 40 11.8628
    endloop
  endfacet
  facet normal 0.999506 0 -0.0314239
    outer loop
      vertex -3.5 40 11.8
      vertex -3.49803 37 11.8628
      vertex -3.5 37 11.8
    endloop
  endfacet
  facet normal -0.999507 0 0.0314092
    outer loop
      vertex -1.50197 37 11.7372
      vertex -1.5 40 11.8
      vertex -1.50197 40 11.7372
    endloop
  endfacet
  facet normal -0.999507 0 0.0314092
    outer loop
      vertex -1.5 40 11.8
      vertex -1.50197 37 11.7372
      vertex -1.5 37 11.8
    endloop
  endfacet
  facet normal -0.707099 0 -0.707114
    outer loop
      vertex -1.81545 37 12.529
      vertex -1.77103 40 12.4845
      vertex -1.77103 37 12.4845
    endloop
  endfacet
  facet normal -0.707099 0 -0.707114
    outer loop
      vertex -1.77103 40 12.4845
      vertex -1.81545 37 12.529
      vertex -1.81545 40 12.529
    endloop
  endfacet
  facet normal 0.661316 0 -0.750108
    outer loop
      vertex -3.18455 37 12.529
      vertex -3.13742 40 12.5705
      vertex -3.13742 37 12.5705
    endloop
  endfacet
  facet normal 0.661316 0 -0.750108
    outer loop
      vertex -3.13742 40 12.5705
      vertex -3.18455 37 12.529
      vertex -3.18455 40 12.529
    endloop
  endfacet
  facet normal 0.707107 -0 0.707107
    outer loop
      vertex -3.22897 37 11.1155
      vertex -3.18455 40 11.071
      vertex -3.22897 40 11.1155
    endloop
  endfacet
  facet normal 0.707107 0 0.707107
    outer loop
      vertex -3.18455 40 11.071
      vertex -3.22897 37 11.1155
      vertex -3.18455 37 11.071
    endloop
  endfacet
  facet normal 0.940878 -0 0.338745
    outer loop
      vertex -3.45106 37 11.491
      vertex -3.42978 40 11.4319
      vertex -3.45106 40 11.491
    endloop
  endfacet
  facet normal 0.940878 0 0.338745
    outer loop
      vertex -3.42978 40 11.4319
      vertex -3.45106 37 11.491
      vertex -3.42978 37 11.4319
    endloop
  endfacet
  facet normal 0.453989 0 -0.891007
    outer loop
      vertex -2.98175 37 12.6763
      vertex -2.92578 40 12.7048
      vertex -2.92578 37 12.7048
    endloop
  endfacet
  facet normal 0.453989 0 -0.891007
    outer loop
      vertex -2.92578 40 12.7048
      vertex -2.98175 37 12.6763
      vertex -2.98175 40 12.6763
    endloop
  endfacet
  facet normal 0.509038 0 -0.860744
    outer loop
      vertex -3.03583 37 12.6443
      vertex -2.98175 40 12.6763
      vertex -2.98175 37 12.6763
    endloop
  endfacet
  facet normal 0.509038 0 -0.860744
    outer loop
      vertex -2.98175 40 12.6763
      vertex -3.03583 37 12.6443
      vertex -3.03583 40 12.6443
    endloop
  endfacet
  facet normal 0.987688 0 -0.156437
    outer loop
      vertex -3.48229 37 11.9874
      vertex -3.49211 40 11.9253
      vertex -3.48229 40 11.9874
    endloop
  endfacet
  facet normal 0.987688 0 -0.156437
    outer loop
      vertex -3.49211 40 11.9253
      vertex -3.48229 37 11.9874
      vertex -3.49211 37 11.9253
    endloop
  endfacet
  facet normal -0.509038 0 0.860744
    outer loop
      vertex -2.01825 40 10.9237
      vertex -1.96417 37 10.9557
      vertex -1.96417 40 10.9557
    endloop
  endfacet
  facet normal -0.509038 0 0.860744
    outer loop
      vertex -1.96417 37 10.9557
      vertex -2.01825 40 10.9237
      vertex -2.01825 37 10.9237
    endloop
  endfacet
  facet normal -0.960294 0 0.278989
    outer loop
      vertex -1.54894 37 11.491
      vertex -1.53142 40 11.5513
      vertex -1.54894 40 11.491
    endloop
  endfacet
  facet normal -0.960294 0 0.278989
    outer loop
      vertex -1.53142 40 11.5513
      vertex -1.54894 37 11.491
      vertex -1.53142 37 11.5513
    endloop
  endfacet
  facet normal -0.707107 0 0.707107
    outer loop
      vertex -1.81545 37 11.071
      vertex -1.77103 40 11.1155
      vertex -1.81545 40 11.071
    endloop
  endfacet
  facet normal -0.707107 0 0.707107
    outer loop
      vertex -1.77103 40 11.1155
      vertex -1.81545 37 11.071
      vertex -1.77103 37 11.1155
    endloop
  endfacet
  facet normal -0.94088 0 -0.33874
    outer loop
      vertex -1.54894 37 12.109
      vertex -1.57022 40 12.1681
      vertex -1.54894 40 12.109
    endloop
  endfacet
  facet normal -0.94088 -0 -0.33874
    outer loop
      vertex -1.57022 40 12.1681
      vertex -1.54894 37 12.109
      vertex -1.57022 37 12.1681
    endloop
  endfacet
  facet normal -0.960293 0 -0.278993
    outer loop
      vertex -1.53142 37 12.0487
      vertex -1.54894 40 12.109
      vertex -1.53142 40 12.0487
    endloop
  endfacet
  facet normal -0.960293 -0 -0.278993
    outer loop
      vertex -1.54894 40 12.109
      vertex -1.53142 37 12.0487
      vertex -1.54894 37 12.109
    endloop
  endfacet
  facet normal -0.218145 0 -0.975916
    outer loop
      vertex -2.31262 37 12.7823
      vertex -2.25131 40 12.7686
      vertex -2.25131 37 12.7686
    endloop
  endfacet
  facet normal -0.218145 0 -0.975916
    outer loop
      vertex -2.25131 40 12.7686
      vertex -2.31262 37 12.7823
      vertex -2.31262 40 12.7823
    endloop
  endfacet
  facet normal 0.278993 0 0.960293
    outer loop
      vertex -2.80902 40 10.8489
      vertex -2.74869 37 10.8314
      vertex -2.74869 40 10.8314
    endloop
  endfacet
  facet normal 0.278993 0 0.960293
    outer loop
      vertex -2.74869 37 10.8314
      vertex -2.80902 40 10.8489
      vertex -2.80902 37 10.8489
    endloop
  endfacet
  facet normal 0.960294 -0 0.278989
    outer loop
      vertex -3.46858 37 11.5513
      vertex -3.45106 40 11.491
      vertex -3.46858 40 11.5513
    endloop
  endfacet
  facet normal 0.960294 0 0.278989
    outer loop
      vertex -3.45106 40 11.491
      vertex -3.46858 37 11.5513
      vertex -3.45106 37 11.491
    endloop
  endfacet
  facet normal 0.790156 -0 0.612906
    outer loop
      vertex -3.30902 37 11.2122
      vertex -3.27051 40 11.1626
      vertex -3.30902 40 11.2122
    endloop
  endfacet
  facet normal 0.790156 0 0.612906
    outer loop
      vertex -3.27051 40 11.1626
      vertex -3.30902 37 11.2122
      vertex -3.27051 37 11.1626
    endloop
  endfacet
  facet normal 0.156437 0 -0.987688
    outer loop
      vertex -2.68738 37 12.7823
      vertex -2.62533 40 12.7921
      vertex -2.62533 37 12.7921
    endloop
  endfacet
  facet normal 0.156437 0 -0.987688
    outer loop
      vertex -2.62533 40 12.7921
      vertex -2.68738 37 12.7823
      vertex -2.68738 40 12.7823
    endloop
  endfacet
  facet normal 0.338727 0 -0.940885
    outer loop
      vertex -2.86812 37 12.7298
      vertex -2.80902 40 12.7511
      vertex -2.80902 37 12.7511
    endloop
  endfacet
  facet normal 0.338727 0 -0.940885
    outer loop
      vertex -2.80902 40 12.7511
      vertex -2.86812 37 12.7298
      vertex -2.86812 40 12.7298
    endloop
  endfacet
  facet normal 0.0941049 0 -0.995562
    outer loop
      vertex -2.62533 37 12.7921
      vertex -2.56279 40 12.798
      vertex -2.56279 37 12.798
    endloop
  endfacet
  facet normal 0.0941049 0 -0.995562
    outer loop
      vertex -2.56279 40 12.798
      vertex -2.62533 37 12.7921
      vertex -2.62533 40 12.7921
    endloop
  endfacet
  facet normal 0.790156 0 -0.612906
    outer loop
      vertex -3.27051 37 12.4374
      vertex -3.30902 40 12.3878
      vertex -3.27051 40 12.4374
    endloop
  endfacet
  facet normal 0.790156 0 -0.612906
    outer loop
      vertex -3.30902 40 12.3878
      vertex -3.27051 37 12.4374
      vertex -3.30902 37 12.3878
    endloop
  endfacet
  facet normal 0.750115 0 -0.661307
    outer loop
      vertex -3.22897 37 12.4845
      vertex -3.27051 40 12.4374
      vertex -3.22897 40 12.4845
    endloop
  endfacet
  facet normal 0.750115 0 -0.661307
    outer loop
      vertex -3.27051 40 12.4374
      vertex -3.22897 37 12.4845
      vertex -3.27051 37 12.4374
    endloop
  endfacet
  facet normal 0.995562 0 -0.0941049
    outer loop
      vertex -3.49211 37 11.9253
      vertex -3.49803 40 11.8628
      vertex -3.49211 40 11.9253
    endloop
  endfacet
  facet normal 0.995562 0 -0.0941049
    outer loop
      vertex -3.49803 40 11.8628
      vertex -3.49211 37 11.9253
      vertex -3.49803 37 11.8628
    endloop
  endfacet
  facet normal -0.995562 0 0.0941049
    outer loop
      vertex -1.50788 37 11.6747
      vertex -1.50197 40 11.7372
      vertex -1.50788 40 11.6747
    endloop
  endfacet
  facet normal -0.995562 0 0.0941049
    outer loop
      vertex -1.50197 40 11.7372
      vertex -1.50788 37 11.6747
      vertex -1.50197 37 11.7372
    endloop
  endfacet
  facet normal -0.89101 0 0.453984
    outer loop
      vertex -1.62369 37 11.3182
      vertex -1.59517 40 11.3742
      vertex -1.62369 40 11.3182
    endloop
  endfacet
  facet normal -0.89101 0 0.453984
    outer loop
      vertex -1.59517 40 11.3742
      vertex -1.62369 37 11.3182
      vertex -1.59517 37 11.3742
    endloop
  endfacet
  facet normal -0.562084 0 0.82708
    outer loop
      vertex -1.96417 40 10.9557
      vertex -1.91221 37 10.991
      vertex -1.91221 40 10.991
    endloop
  endfacet
  facet normal -0.562084 0 0.82708
    outer loop
      vertex -1.91221 37 10.991
      vertex -1.96417 40 10.9557
      vertex -1.96417 37 10.9557
    endloop
  endfacet
  facet normal -0.156422 0 0.98769
    outer loop
      vertex -2.37467 40 10.8079
      vertex -2.31262 37 10.8177
      vertex -2.31262 40 10.8177
    endloop
  endfacet
  facet normal -0.156422 0 0.98769
    outer loop
      vertex -2.31262 37 10.8177
      vertex -2.37467 40 10.8079
      vertex -2.37467 37 10.8079
    endloop
  endfacet
  facet normal -0.860733 0 -0.509056
    outer loop
      vertex -1.62369 37 12.2818
      vertex -1.65567 40 12.3358
      vertex -1.62369 40 12.2818
    endloop
  endfacet
  facet normal -0.860733 -0 -0.509056
    outer loop
      vertex -1.65567 40 12.3358
      vertex -1.62369 37 12.2818
      vertex -1.65567 37 12.3358
    endloop
  endfacet
  facet normal -0.995562 0 -0.0941049
    outer loop
      vertex -1.50197 37 11.8628
      vertex -1.50788 40 11.9253
      vertex -1.50197 40 11.8628
    endloop
  endfacet
  facet normal -0.995562 -0 -0.0941049
    outer loop
      vertex -1.50788 40 11.9253
      vertex -1.50197 37 11.8628
      vertex -1.50788 37 11.9253
    endloop
  endfacet
  facet normal -0.453989 0 -0.891007
    outer loop
      vertex -2.07422 37 12.7048
      vertex -2.01825 40 12.6763
      vertex -2.01825 37 12.6763
    endloop
  endfacet
  facet normal -0.453989 0 -0.891007
    outer loop
      vertex -2.01825 40 12.6763
      vertex -2.07422 37 12.7048
      vertex -2.07422 40 12.7048
    endloop
  endfacet
  facet normal -0.562084 0 -0.82708
    outer loop
      vertex -1.96417 37 12.6443
      vertex -1.91221 40 12.609
      vertex -1.91221 37 12.609
    endloop
  endfacet
  facet normal -0.562084 0 -0.82708
    outer loop
      vertex -1.91221 40 12.609
      vertex -1.96417 37 12.6443
      vertex -1.96417 40 12.6443
    endloop
  endfacet
  facet normal -0.397158 0 -0.91775
    outer loop
      vertex -2.13188 37 12.7298
      vertex -2.07422 40 12.7048
      vertex -2.07422 37 12.7048
    endloop
  endfacet
  facet normal -0.397158 0 -0.91775
    outer loop
      vertex -2.07422 40 12.7048
      vertex -2.13188 37 12.7298
      vertex -2.13188 40 12.7298
    endloop
  endfacet
  facet normal -0.0941049 0 -0.995562
    outer loop
      vertex -2.43721 37 12.798
      vertex -2.37467 40 12.7921
      vertex -2.37467 37 12.7921
    endloop
  endfacet
  facet normal -0.0941049 0 -0.995562
    outer loop
      vertex -2.37467 40 12.7921
      vertex -2.43721 37 12.798
      vertex -2.43721 40 12.798
    endloop
  endfacet
  facet normal 0.0941199 0 0.995561
    outer loop
      vertex -2.62533 40 10.8079
      vertex -2.56279 37 10.802
      vertex -2.56279 40 10.802
    endloop
  endfacet
  facet normal 0.0941199 0 0.995561
    outer loop
      vertex -2.56279 37 10.802
      vertex -2.62533 40 10.8079
      vertex -2.62533 37 10.8079
    endloop
  endfacet
  facet normal 0.218145 0 0.975916
    outer loop
      vertex -2.74869 40 10.8314
      vertex -2.68738 37 10.8177
      vertex -2.68738 40 10.8177
    endloop
  endfacet
  facet normal 0.218145 0 0.975916
    outer loop
      vertex -2.68738 37 10.8177
      vertex -2.74869 40 10.8314
      vertex -2.74869 37 10.8314
    endloop
  endfacet
  facet normal 0.33874 0 0.94088
    outer loop
      vertex -2.86812 40 10.8702
      vertex -2.80902 37 10.8489
      vertex -2.80902 40 10.8489
    endloop
  endfacet
  facet normal 0.33874 0 0.94088
    outer loop
      vertex -2.80902 37 10.8489
      vertex -2.86812 40 10.8702
      vertex -2.86812 37 10.8702
    endloop
  endfacet
  facet normal 0.397145 0 0.917756
    outer loop
      vertex -2.92578 40 10.8952
      vertex -2.86812 37 10.8702
      vertex -2.86812 40 10.8702
    endloop
  endfacet
  facet normal 0.397145 0 0.917756
    outer loop
      vertex -2.86812 37 10.8702
      vertex -2.92578 40 10.8952
      vertex -2.92578 37 10.8952
    endloop
  endfacet
  facet normal 0.612915 0 0.790149
    outer loop
      vertex -3.13742 40 11.0295
      vertex -3.08778 37 10.991
      vertex -3.08778 40 10.991
    endloop
  endfacet
  facet normal 0.612915 0 0.790149
    outer loop
      vertex -3.08778 37 10.991
      vertex -3.13742 40 11.0295
      vertex -3.13742 37 11.0295
    endloop
  endfacet
  facet normal 0.509038 0 0.860744
    outer loop
      vertex -3.03583 40 10.9557
      vertex -2.98175 37 10.9237
      vertex -2.98175 40 10.9237
    endloop
  endfacet
  facet normal 0.509038 0 0.860744
    outer loop
      vertex -2.98175 37 10.9237
      vertex -3.03583 40 10.9557
      vertex -3.03583 37 10.9557
    endloop
  endfacet
  facet normal 0.562084 0 0.82708
    outer loop
      vertex -3.08778 40 10.991
      vertex -3.03583 37 10.9557
      vertex -3.03583 40 10.9557
    endloop
  endfacet
  facet normal 0.562084 0 0.82708
    outer loop
      vertex -3.03583 37 10.9557
      vertex -3.08778 40 10.991
      vertex -3.08778 37 10.991
    endloop
  endfacet
  facet normal 0.453989 0 0.891007
    outer loop
      vertex -2.98175 40 10.9237
      vertex -2.92578 37 10.8952
      vertex -2.92578 40 10.8952
    endloop
  endfacet
  facet normal 0.453989 0 0.891007
    outer loop
      vertex -2.92578 37 10.8952
      vertex -2.98175 40 10.9237
      vertex -2.98175 37 10.9237
    endloop
  endfacet
  facet normal 0.975919 -0 0.218131
    outer loop
      vertex -3.48229 37 11.6126
      vertex -3.46858 40 11.5513
      vertex -3.48229 40 11.6126
    endloop
  endfacet
  facet normal 0.975919 0 0.218131
    outer loop
      vertex -3.46858 40 11.5513
      vertex -3.48229 37 11.6126
      vertex -3.46858 37 11.5513
    endloop
  endfacet
  facet normal 0.995562 -0 0.0941049
    outer loop
      vertex -3.49803 37 11.7372
      vertex -3.49211 40 11.6747
      vertex -3.49803 40 11.7372
    endloop
  endfacet
  facet normal 0.995562 0 0.0941049
    outer loop
      vertex -3.49211 40 11.6747
      vertex -3.49803 37 11.7372
      vertex -3.49211 37 11.6747
    endloop
  endfacet
  facet normal 0.89101 -0 0.453984
    outer loop
      vertex -3.40483 37 11.3742
      vertex -3.37631 40 11.3182
      vertex -3.40483 40 11.3742
    endloop
  endfacet
  facet normal 0.89101 0 0.453984
    outer loop
      vertex -3.37631 40 11.3182
      vertex -3.40483 37 11.3742
      vertex -3.37631 37 11.3182
    endloop
  endfacet
  facet normal 0.860737 -0 0.509049
    outer loop
      vertex -3.37631 37 11.3182
      vertex -3.34433 40 11.2642
      vertex -3.37631 40 11.3182
    endloop
  endfacet
  facet normal 0.860737 0 0.509049
    outer loop
      vertex -3.34433 40 11.2642
      vertex -3.37631 37 11.3182
      vertex -3.34433 37 11.2642
    endloop
  endfacet
  facet normal 0.82708 -0 0.562084
    outer loop
      vertex -3.34433 37 11.2642
      vertex -3.30902 40 11.2122
      vertex -3.34433 40 11.2642
    endloop
  endfacet
  facet normal 0.82708 0 0.562084
    outer loop
      vertex -3.30902 40 11.2122
      vertex -3.34433 37 11.2642
      vertex -3.30902 37 11.2122
    endloop
  endfacet
  facet normal 0.750115 -0 0.661307
    outer loop
      vertex -3.27051 37 11.1626
      vertex -3.22897 40 11.1155
      vertex -3.27051 40 11.1626
    endloop
  endfacet
  facet normal 0.750115 0 0.661307
    outer loop
      vertex -3.22897 40 11.1155
      vertex -3.27051 37 11.1626
      vertex -3.22897 37 11.1155
    endloop
  endfacet
  facet normal 0.612906 0 -0.790156
    outer loop
      vertex -3.13742 37 12.5705
      vertex -3.08778 40 12.609
      vertex -3.08778 37 12.609
    endloop
  endfacet
  facet normal 0.612906 0 -0.790156
    outer loop
      vertex -3.08778 40 12.609
      vertex -3.13742 37 12.5705
      vertex -3.13742 40 12.5705
    endloop
  endfacet
  facet normal 0.562084 0 -0.82708
    outer loop
      vertex -3.08778 37 12.609
      vertex -3.03583 40 12.6443
      vertex -3.03583 37 12.6443
    endloop
  endfacet
  facet normal 0.562084 0 -0.82708
    outer loop
      vertex -3.03583 40 12.6443
      vertex -3.08778 37 12.609
      vertex -3.08778 40 12.609
    endloop
  endfacet
  facet normal 0.397158 0 -0.91775
    outer loop
      vertex -2.92578 37 12.7048
      vertex -2.86812 40 12.7298
      vertex -2.86812 37 12.7298
    endloop
  endfacet
  facet normal 0.397158 0 -0.91775
    outer loop
      vertex -2.86812 40 12.7298
      vertex -2.92578 37 12.7048
      vertex -2.92578 40 12.7048
    endloop
  endfacet
  facet normal 0.278993 0 -0.960293
    outer loop
      vertex -2.80902 37 12.7511
      vertex -2.74869 40 12.7686
      vertex -2.74869 37 12.7686
    endloop
  endfacet
  facet normal 0.278993 0 -0.960293
    outer loop
      vertex -2.74869 40 12.7686
      vertex -2.80902 37 12.7511
      vertex -2.80902 40 12.7511
    endloop
  endfacet
  facet normal 0.218145 0 -0.975916
    outer loop
      vertex -2.74869 37 12.7686
      vertex -2.68738 40 12.7823
      vertex -2.68738 37 12.7823
    endloop
  endfacet
  facet normal 0.218145 0 -0.975916
    outer loop
      vertex -2.68738 40 12.7823
      vertex -2.74869 37 12.7686
      vertex -2.74869 40 12.7686
    endloop
  endfacet
  facet normal 0.0314092 0 -0.999507
    outer loop
      vertex -2.56279 37 12.798
      vertex -2.5 40 12.8
      vertex -2.5 37 12.8
    endloop
  endfacet
  facet normal 0.0314092 0 -0.999507
    outer loop
      vertex -2.5 40 12.8
      vertex -2.56279 37 12.798
      vertex -2.56279 40 12.798
    endloop
  endfacet
  facet normal 0.827085 0 -0.562077
    outer loop
      vertex -3.30902 37 12.3878
      vertex -3.34433 40 12.3358
      vertex -3.30902 40 12.3878
    endloop
  endfacet
  facet normal 0.827085 0 -0.562077
    outer loop
      vertex -3.34433 40 12.3358
      vertex -3.30902 37 12.3878
      vertex -3.34433 37 12.3358
    endloop
  endfacet
  facet normal 0.891013 0 -0.453977
    outer loop
      vertex -3.37631 37 12.2818
      vertex -3.40483 40 12.2258
      vertex -3.37631 40 12.2818
    endloop
  endfacet
  facet normal 0.891013 0 -0.453977
    outer loop
      vertex -3.40483 40 12.2258
      vertex -3.37631 37 12.2818
      vertex -3.40483 37 12.2258
    endloop
  endfacet
  facet normal 0.960293 0 -0.278993
    outer loop
      vertex -3.45106 37 12.109
      vertex -3.46858 40 12.0487
      vertex -3.45106 40 12.109
    endloop
  endfacet
  facet normal 0.960293 0 -0.278993
    outer loop
      vertex -3.46858 40 12.0487
      vertex -3.45106 37 12.109
      vertex -3.46858 37 12.0487
    endloop
  endfacet
  facet normal 0.94088 0 -0.33874
    outer loop
      vertex -3.42978 37 12.1681
      vertex -3.45106 40 12.109
      vertex -3.42978 40 12.1681
    endloop
  endfacet
  facet normal 0.94088 0 -0.33874
    outer loop
      vertex -3.45106 40 12.109
      vertex -3.42978 37 12.1681
      vertex -3.45106 37 12.109
    endloop
  endfacet
  facet normal 0.975919 0 -0.218131
    outer loop
      vertex -3.46858 37 12.0487
      vertex -3.48229 40 11.9874
      vertex -3.46858 40 12.0487
    endloop
  endfacet
  facet normal 0.975919 0 -0.218131
    outer loop
      vertex -3.48229 40 11.9874
      vertex -3.46858 37 12.0487
      vertex -3.48229 37 11.9874
    endloop
  endfacet
  facet normal -0.0314087 0 0.999507
    outer loop
      vertex -2.5 40 10.8
      vertex -2.43721 37 10.802
      vertex -2.43721 40 10.802
    endloop
  endfacet
  facet normal -0.0314087 0 0.999507
    outer loop
      vertex -2.43721 37 10.802
      vertex -2.5 40 10.8
      vertex -2.5 37 10.8
    endloop
  endfacet
  facet normal -0.0941199 0 0.995561
    outer loop
      vertex -2.43721 40 10.802
      vertex -2.37467 37 10.8079
      vertex -2.37467 40 10.8079
    endloop
  endfacet
  facet normal -0.0941199 0 0.995561
    outer loop
      vertex -2.37467 37 10.8079
      vertex -2.43721 40 10.802
      vertex -2.43721 37 10.802
    endloop
  endfacet
  facet normal -0.987688 0 0.156437
    outer loop
      vertex -1.51771 37 11.6126
      vertex -1.50788 40 11.6747
      vertex -1.51771 40 11.6126
    endloop
  endfacet
  facet normal -0.987688 0 0.156437
    outer loop
      vertex -1.50788 40 11.6747
      vertex -1.51771 37 11.6126
      vertex -1.50788 37 11.6747
    endloop
  endfacet
  facet normal -0.940878 0 0.338745
    outer loop
      vertex -1.57022 37 11.4319
      vertex -1.54894 40 11.491
      vertex -1.57022 40 11.4319
    endloop
  endfacet
  facet normal -0.940878 0 0.338745
    outer loop
      vertex -1.54894 40 11.491
      vertex -1.57022 37 11.4319
      vertex -1.54894 37 11.491
    endloop
  endfacet
  facet normal -0.917753 0 0.397152
    outer loop
      vertex -1.59517 37 11.3742
      vertex -1.57022 40 11.4319
      vertex -1.59517 40 11.3742
    endloop
  endfacet
  facet normal -0.917753 0 0.397152
    outer loop
      vertex -1.57022 40 11.4319
      vertex -1.59517 37 11.3742
      vertex -1.57022 37 11.4319
    endloop
  endfacet
  facet normal -0.790156 0 0.612906
    outer loop
      vertex -1.72949 37 11.1626
      vertex -1.69098 40 11.2122
      vertex -1.72949 40 11.1626
    endloop
  endfacet
  facet normal -0.790156 0 0.612906
    outer loop
      vertex -1.69098 40 11.2122
      vertex -1.72949 37 11.1626
      vertex -1.69098 37 11.2122
    endloop
  endfacet
  facet normal -0.860737 0 0.509049
    outer loop
      vertex -1.65567 37 11.2642
      vertex -1.62369 40 11.3182
      vertex -1.65567 40 11.2642
    endloop
  endfacet
  facet normal -0.860737 0 0.509049
    outer loop
      vertex -1.62369 40 11.3182
      vertex -1.65567 37 11.2642
      vertex -1.62369 37 11.3182
    endloop
  endfacet
  facet normal -0.661307 0 0.750115
    outer loop
      vertex -1.86258 40 11.0295
      vertex -1.81545 37 11.071
      vertex -1.81545 40 11.071
    endloop
  endfacet
  facet normal -0.661307 0 0.750115
    outer loop
      vertex -1.81545 37 11.071
      vertex -1.86258 40 11.0295
      vertex -1.86258 37 11.0295
    endloop
  endfacet
  facet normal -0.612915 0 0.790149
    outer loop
      vertex -1.91221 40 10.991
      vertex -1.86258 37 11.0295
      vertex -1.86258 40 11.0295
    endloop
  endfacet
  facet normal -0.612915 0 0.790149
    outer loop
      vertex -1.86258 37 11.0295
      vertex -1.91221 40 10.991
      vertex -1.91221 37 10.991
    endloop
  endfacet
  facet normal -0.397145 0 0.917756
    outer loop
      vertex -2.13188 40 10.8702
      vertex -2.07422 37 10.8952
      vertex -2.07422 40 10.8952
    endloop
  endfacet
  facet normal -0.397145 0 0.917756
    outer loop
      vertex -2.07422 37 10.8952
      vertex -2.13188 40 10.8702
      vertex -2.13188 37 10.8702
    endloop
  endfacet
  facet normal -0.33874 0 0.94088
    outer loop
      vertex -2.19098 40 10.8489
      vertex -2.13188 37 10.8702
      vertex -2.13188 40 10.8702
    endloop
  endfacet
  facet normal -0.33874 0 0.94088
    outer loop
      vertex -2.13188 37 10.8702
      vertex -2.19098 40 10.8489
      vertex -2.19098 37 10.8489
    endloop
  endfacet
  facet normal -0.278993 0 0.960293
    outer loop
      vertex -2.25131 40 10.8314
      vertex -2.19098 37 10.8489
      vertex -2.19098 40 10.8489
    endloop
  endfacet
  facet normal -0.278993 0 0.960293
    outer loop
      vertex -2.19098 37 10.8489
      vertex -2.25131 40 10.8314
      vertex -2.25131 37 10.8314
    endloop
  endfacet
  facet normal -0.750115 0 -0.661307
    outer loop
      vertex -1.72949 37 12.4374
      vertex -1.77103 40 12.4845
      vertex -1.72949 40 12.4374
    endloop
  endfacet
  facet normal -0.750115 -0 -0.661307
    outer loop
      vertex -1.77103 40 12.4845
      vertex -1.72949 37 12.4374
      vertex -1.77103 37 12.4845
    endloop
  endfacet
  facet normal -0.790156 0 -0.612906
    outer loop
      vertex -1.69098 37 12.3878
      vertex -1.72949 40 12.4374
      vertex -1.69098 40 12.3878
    endloop
  endfacet
  facet normal -0.790156 -0 -0.612906
    outer loop
      vertex -1.72949 40 12.4374
      vertex -1.69098 37 12.3878
      vertex -1.72949 37 12.4374
    endloop
  endfacet
  facet normal -0.827085 0 -0.562077
    outer loop
      vertex -1.65567 37 12.3358
      vertex -1.69098 40 12.3878
      vertex -1.65567 40 12.3358
    endloop
  endfacet
  facet normal -0.827085 -0 -0.562077
    outer loop
      vertex -1.69098 40 12.3878
      vertex -1.65567 37 12.3358
      vertex -1.69098 37 12.3878
    endloop
  endfacet
  facet normal -0.91775 0 -0.397158
    outer loop
      vertex -1.57022 37 12.1681
      vertex -1.59517 40 12.2258
      vertex -1.57022 40 12.1681
    endloop
  endfacet
  facet normal -0.91775 -0 -0.397158
    outer loop
      vertex -1.59517 40 12.2258
      vertex -1.57022 37 12.1681
      vertex -1.59517 37 12.2258
    endloop
  endfacet
  facet normal -0.891013 0 -0.453977
    outer loop
      vertex -1.59517 37 12.2258
      vertex -1.62369 40 12.2818
      vertex -1.59517 40 12.2258
    endloop
  endfacet
  facet normal -0.891013 -0 -0.453977
    outer loop
      vertex -1.62369 40 12.2818
      vertex -1.59517 37 12.2258
      vertex -1.62369 37 12.2818
    endloop
  endfacet
  facet normal -0.987688 0 -0.156437
    outer loop
      vertex -1.50788 37 11.9253
      vertex -1.51771 40 11.9874
      vertex -1.50788 40 11.9253
    endloop
  endfacet
  facet normal -0.987688 -0 -0.156437
    outer loop
      vertex -1.51771 40 11.9874
      vertex -1.50788 37 11.9253
      vertex -1.51771 37 11.9874
    endloop
  endfacet
  facet normal -0.975919 0 -0.218131
    outer loop
      vertex -1.51771 37 11.9874
      vertex -1.53142 40 12.0487
      vertex -1.51771 40 11.9874
    endloop
  endfacet
  facet normal -0.975919 -0 -0.218131
    outer loop
      vertex -1.53142 40 12.0487
      vertex -1.51771 37 11.9874
      vertex -1.53142 37 12.0487
    endloop
  endfacet
  facet normal -0.999507 0 -0.0314087
    outer loop
      vertex -1.5 37 11.8
      vertex -1.50197 40 11.8628
      vertex -1.5 40 11.8
    endloop
  endfacet
  facet normal -0.999507 -0 -0.0314087
    outer loop
      vertex -1.50197 40 11.8628
      vertex -1.5 37 11.8
      vertex -1.50197 37 11.8628
    endloop
  endfacet
  facet normal -0.509038 0 -0.860744
    outer loop
      vertex -2.01825 37 12.6763
      vertex -1.96417 40 12.6443
      vertex -1.96417 37 12.6443
    endloop
  endfacet
  facet normal -0.509038 0 -0.860744
    outer loop
      vertex -1.96417 40 12.6443
      vertex -2.01825 37 12.6763
      vertex -2.01825 40 12.6763
    endloop
  endfacet
  facet normal -0.612906 0 -0.790156
    outer loop
      vertex -1.91221 37 12.609
      vertex -1.86258 40 12.5705
      vertex -1.86258 37 12.5705
    endloop
  endfacet
  facet normal -0.612906 0 -0.790156
    outer loop
      vertex -1.86258 40 12.5705
      vertex -1.91221 37 12.609
      vertex -1.91221 40 12.609
    endloop
  endfacet
  facet normal -0.278993 0 -0.960293
    outer loop
      vertex -2.25131 37 12.7686
      vertex -2.19098 40 12.7511
      vertex -2.19098 37 12.7511
    endloop
  endfacet
  facet normal -0.278993 0 -0.960293
    outer loop
      vertex -2.19098 40 12.7511
      vertex -2.25131 37 12.7686
      vertex -2.25131 40 12.7686
    endloop
  endfacet
  facet normal -0.338727 0 -0.940885
    outer loop
      vertex -2.19098 37 12.7511
      vertex -2.13188 40 12.7298
      vertex -2.13188 37 12.7298
    endloop
  endfacet
  facet normal -0.338727 0 -0.940885
    outer loop
      vertex -2.13188 40 12.7298
      vertex -2.19098 37 12.7511
      vertex -2.19098 40 12.7511
    endloop
  endfacet
  facet normal -0.156437 0 -0.987688
    outer loop
      vertex -2.37467 37 12.7921
      vertex -2.31262 40 12.7823
      vertex -2.31262 37 12.7823
    endloop
  endfacet
  facet normal -0.156437 0 -0.987688
    outer loop
      vertex -2.31262 40 12.7823
      vertex -2.37467 37 12.7921
      vertex -2.37467 40 12.7921
    endloop
  endfacet
  facet normal 0.156422 0 0.98769
    outer loop
      vertex -2.68738 40 10.8177
      vertex -2.62533 37 10.8079
      vertex -2.62533 40 10.8079
    endloop
  endfacet
  facet normal 0.156422 0 0.98769
    outer loop
      vertex -2.62533 37 10.8079
      vertex -2.68738 40 10.8177
      vertex -2.68738 37 10.8177
    endloop
  endfacet
  facet normal 0.661307 0 0.750115
    outer loop
      vertex -3.18455 40 11.071
      vertex -3.13742 37 11.0295
      vertex -3.13742 40 11.0295
    endloop
  endfacet
  facet normal 0.661307 0 0.750115
    outer loop
      vertex -3.13742 37 11.0295
      vertex -3.18455 40 11.071
      vertex -3.18455 37 11.071
    endloop
  endfacet
  facet normal 0.987688 -0 0.156437
    outer loop
      vertex -3.49211 37 11.6747
      vertex -3.48229 40 11.6126
      vertex -3.49211 40 11.6747
    endloop
  endfacet
  facet normal 0.987688 0 0.156437
    outer loop
      vertex -3.48229 40 11.6126
      vertex -3.49211 37 11.6747
      vertex -3.48229 37 11.6126
    endloop
  endfacet
  facet normal 0.999506 -0 0.0314243
    outer loop
      vertex -3.5 37 11.8
      vertex -3.49803 40 11.7372
      vertex -3.5 40 11.8
    endloop
  endfacet
  facet normal 0.999506 0 0.0314243
    outer loop
      vertex -3.49803 40 11.7372
      vertex -3.5 37 11.8
      vertex -3.49803 37 11.7372
    endloop
  endfacet
  facet normal 0.917753 -0 0.397152
    outer loop
      vertex -3.42978 37 11.4319
      vertex -3.40483 40 11.3742
      vertex -3.42978 40 11.4319
    endloop
  endfacet
  facet normal 0.917753 0 0.397152
    outer loop
      vertex -3.40483 40 11.3742
      vertex -3.42978 37 11.4319
      vertex -3.40483 37 11.3742
    endloop
  endfacet
  facet normal 0.707099 0 -0.707114
    outer loop
      vertex -3.22897 37 12.4845
      vertex -3.18455 40 12.529
      vertex -3.18455 37 12.529
    endloop
  endfacet
  facet normal 0.707099 0 -0.707114
    outer loop
      vertex -3.18455 40 12.529
      vertex -3.22897 37 12.4845
      vertex -3.22897 40 12.4845
    endloop
  endfacet
  facet normal 0.860733 0 -0.509056
    outer loop
      vertex -3.34433 37 12.3358
      vertex -3.37631 40 12.2818
      vertex -3.34433 40 12.3358
    endloop
  endfacet
  facet normal 0.860733 0 -0.509056
    outer loop
      vertex -3.37631 40 12.2818
      vertex -3.34433 37 12.3358
      vertex -3.37631 37 12.2818
    endloop
  endfacet
  facet normal 0.91775 0 -0.397158
    outer loop
      vertex -3.40483 37 12.2258
      vertex -3.42978 40 12.1681
      vertex -3.40483 40 12.2258
    endloop
  endfacet
  facet normal 0.91775 0 -0.397158
    outer loop
      vertex -3.42978 40 12.1681
      vertex -3.40483 37 12.2258
      vertex -3.42978 37 12.1681
    endloop
  endfacet
  facet normal -0.218145 0 0.975916
    outer loop
      vertex -2.31262 40 10.8177
      vertex -2.25131 37 10.8314
      vertex -2.25131 40 10.8314
    endloop
  endfacet
  facet normal -0.218145 0 0.975916
    outer loop
      vertex -2.25131 37 10.8314
      vertex -2.31262 40 10.8177
      vertex -2.31262 37 10.8177
    endloop
  endfacet
  facet normal -0.975919 0 0.218131
    outer loop
      vertex -1.53142 37 11.5513
      vertex -1.51771 40 11.6126
      vertex -1.53142 40 11.5513
    endloop
  endfacet
  facet normal -0.975919 0 0.218131
    outer loop
      vertex -1.51771 40 11.6126
      vertex -1.53142 37 11.5513
      vertex -1.51771 37 11.6126
    endloop
  endfacet
  facet normal -0.750115 0 0.661307
    outer loop
      vertex -1.77103 37 11.1155
      vertex -1.72949 40 11.1626
      vertex -1.77103 40 11.1155
    endloop
  endfacet
  facet normal -0.750115 0 0.661307
    outer loop
      vertex -1.72949 40 11.1626
      vertex -1.77103 37 11.1155
      vertex -1.72949 37 11.1626
    endloop
  endfacet
  facet normal -0.82708 0 0.562084
    outer loop
      vertex -1.69098 37 11.2122
      vertex -1.65567 40 11.2642
      vertex -1.69098 40 11.2122
    endloop
  endfacet
  facet normal -0.82708 0 0.562084
    outer loop
      vertex -1.65567 40 11.2642
      vertex -1.69098 37 11.2122
      vertex -1.65567 37 11.2642
    endloop
  endfacet
  facet normal -0.453989 0 0.891007
    outer loop
      vertex -2.07422 40 10.8952
      vertex -2.01825 37 10.9237
      vertex -2.01825 40 10.9237
    endloop
  endfacet
  facet normal -0.453989 0 0.891007
    outer loop
      vertex -2.01825 37 10.9237
      vertex -2.07422 40 10.8952
      vertex -2.07422 37 10.8952
    endloop
  endfacet
  facet normal -0.661316 0 -0.750108
    outer loop
      vertex -1.86258 37 12.5705
      vertex -1.81545 40 12.529
      vertex -1.81545 37 12.529
    endloop
  endfacet
  facet normal -0.661316 0 -0.750108
    outer loop
      vertex -1.81545 40 12.529
      vertex -1.86258 37 12.5705
      vertex -1.86258 40 12.5705
    endloop
  endfacet
endsolid OpenSCAD_Model
